# xmcd
#
# Track frame offsets:
#	150
#	12922
#	24955
#	37237
#	49170
#	62010
#	73315
#	84382
#	102320
#	112830
#	122180
#	131650
#	145362
#	157485
#	169712
#	180162
#	192602
#	204187
#	214890
#	226950
#
# Disc length: 3191 seconds
#
# Revision: 1
# Processed by: cddbd v1.5.2PL0 Copyright (c) Steve Scherf et al.
# Submitted via: FairStars CD Ripper 1.80
#
DISCID=230c7514
DTITLE=Various Artist - Easy Listening Country - Best of the 60's
DYEAR=1995
DGENRE=Country
TTITLE0=Johnny Horton - North to Alaska
TTITLE1=Glen Campbell - Galveston
TTITLE2=Patsy Cline - Crazy
TTITLE3=Johnny Cash - Ring Of Fire
TTITLE4=Merle Haggard - I Take a Lot of Pride in What I am
TTITLE5=Sonny James - Take Good Care of Her
TTITLE6=Buck Owens - My Heart Skips a Beat
TTITLE7=Bobby Goldsboro - Honey
TTITLE8=Ferlin Husky - Wings of a Dove
TTITLE9=Glen Campbell and Bobbie Gentry - Let it be Me
TTITLE10=Merle Haggard and The Strangers - The Legend of Bonnie and Clyde
TTITLE11=Glen Campbell - Wichita Lineman
TTITLE12=Del Reeves - Girl on The Billboard
TTITLE13=Roy Clark - Tip Of My Fingers
TTITLE14=Jody Miller - Queen Of The House
TTITLE15=Glen Campbell - By The Time I Get To Phoenix
TTITLE16=Conway Twitty - I Love You More Today
TTITLE17=Buck Owens - Act Naturally
TTITLE18=George Jones - Melba Montgomery - We Must Of Been Out Of Our Minds
TTITLE19=Sonny James - Running Bear
EXTD=
EXTT0=
EXTT1=
EXTT2=
EXTT3=
EXTT4=
EXTT5=
EXTT6=
EXTT7=
EXTT8=
EXTT9=
EXTT10=
EXTT11=
EXTT12=
EXTT13=
EXTT14=
EXTT15=
EXTT16=
EXTT17=
EXTT18=
EXTT19=
PLAYORDER=
